<svg width="371" height="121" viewBox="0 0 371 121" fill="none" xmlns="http://www.w3.org/2000/svg">
<mask id="path-1-outside-1_417_15" maskUnits="userSpaceOnUse" x="0" y="68" width="298" height="50" fill="black">
<rect fill="white" y="68" width="298" height="50"/>
<path d="M22.224 82.312L21.264 87.944H35.344L33.424 98.632H19.344L18.192 105.032H34.192L32.208 116.36H2L10 71.048H40.208L38.224 82.312H22.224Z"/>
<path d="M70.3945 88.648L68.2825 100.36H38.4585L40.5705 88.648H70.3945Z"/>
<path d="M129.03 80.008C132.955 80.008 135.963 81.032 138.053 83.08C140.187 85.128 141.254 87.9653 141.254 91.592C141.254 92.7867 141.126 94.0667 140.87 95.432L137.158 116.36H123.014L126.406 97.224C126.448 96.968 126.469 96.6053 126.469 96.136C126.469 94.8987 126.086 93.96 125.318 93.32C124.592 92.6373 123.568 92.296 122.245 92.296C120.709 92.296 119.408 92.7227 118.342 93.576C117.318 94.3867 116.656 95.5173 116.357 96.968L112.902 116.36H98.7575L102.15 97.224C102.192 96.968 102.214 96.6053 102.214 96.136C102.214 94.8987 101.83 93.96 101.062 93.32C100.336 92.6373 99.3122 92.296 97.9895 92.296C96.4535 92.296 95.1522 92.7227 94.0855 93.576C93.0615 94.4293 92.4002 95.5813 92.1015 97.032L88.6455 116.36H74.4375L80.8375 80.264H95.0455L94.1495 85.128C95.4722 83.592 97.0935 82.3547 99.0135 81.416C100.934 80.4773 103.088 80.008 105.478 80.008C108.08 80.008 110.278 80.584 112.07 81.736C113.904 82.8453 115.227 84.4453 116.038 86.536C117.702 84.616 119.643 83.0587 121.862 81.864C124.123 80.6267 126.512 80.008 129.03 80.008Z"/>
<path d="M205.82 101.832C205.778 102.003 205.757 102.216 205.757 102.472C205.757 103.667 206.525 104.264 208.061 104.264H211.452L209.277 116.36H203.9C195.495 116.36 191.292 112.797 191.292 105.672C191.292 104.392 191.42 103.027 191.676 101.576L193.34 92.104H188.861L190.973 80.264H195.452L196.988 71.56H211.197L209.661 80.264H215.549L213.436 92.104H207.548L205.82 101.832Z"/>
<path d="M215.967 98.312C216.65 94.5573 218.016 91.2933 220.064 88.52C222.112 85.704 224.65 83.5493 227.68 82.056C230.752 80.5627 234.079 79.816 237.663 79.816C242.357 79.816 246.069 81.1387 248.799 83.784C251.573 86.4293 252.981 90.0987 253.023 94.792H237.984C237.685 92.9147 236.746 91.976 235.167 91.976C234.015 91.976 233.013 92.5093 232.16 93.576C231.349 94.6427 230.751 96.2213 230.367 98.312C230.197 99.5067 230.111 100.296 230.111 100.68C230.111 102.003 230.368 103.005 230.88 103.688C231.392 104.328 232.096 104.648 232.992 104.648C234.613 104.648 235.85 103.709 236.704 101.832H251.743C250.079 106.525 247.392 110.195 243.68 112.84C240.01 115.485 235.829 116.808 231.135 116.808C226.357 116.808 222.559 115.549 219.743 113.032C216.97 110.472 215.583 106.931 215.583 102.408C215.583 101.085 215.711 99.72 215.967 98.312Z"/>
<path d="M285.367 80.008C288.866 80.008 291.554 81.032 293.432 83.08C295.309 85.0853 296.247 87.8587 296.247 91.4C296.247 92.68 296.119 94.024 295.863 95.432L292.151 116.36H278.008L281.4 97.224C281.485 96.5413 281.527 96.072 281.527 95.816C281.527 94.4933 281.143 93.4693 280.375 92.744C279.65 92.0187 278.626 91.656 277.303 91.656C275.725 91.656 274.402 92.1467 273.336 93.128C272.312 94.1093 271.629 95.4747 271.288 97.224V97.16L267.896 116.36H253.688L262.072 69H276.28L273.336 85.704C274.744 83.9973 276.472 82.632 278.52 81.608C280.568 80.5413 282.85 80.008 285.367 80.008Z"/>
</mask>
<path d="M22.224 82.312L21.264 87.944H35.344L33.424 98.632H19.344L18.192 105.032H34.192L32.208 116.36H2L10 71.048H40.208L38.224 82.312H22.224Z" fill="#321092"/>
<path d="M70.3945 88.648L68.2825 100.36H38.4585L40.5705 88.648H70.3945Z" fill="#321092"/>
<path d="M129.03 80.008C132.955 80.008 135.963 81.032 138.053 83.08C140.187 85.128 141.254 87.9653 141.254 91.592C141.254 92.7867 141.126 94.0667 140.87 95.432L137.158 116.36H123.014L126.406 97.224C126.448 96.968 126.469 96.6053 126.469 96.136C126.469 94.8987 126.086 93.96 125.318 93.32C124.592 92.6373 123.568 92.296 122.245 92.296C120.709 92.296 119.408 92.7227 118.342 93.576C117.318 94.3867 116.656 95.5173 116.357 96.968L112.902 116.36H98.7575L102.15 97.224C102.192 96.968 102.214 96.6053 102.214 96.136C102.214 94.8987 101.83 93.96 101.062 93.32C100.336 92.6373 99.3122 92.296 97.9895 92.296C96.4535 92.296 95.1522 92.7227 94.0855 93.576C93.0615 94.4293 92.4002 95.5813 92.1015 97.032L88.6455 116.36H74.4375L80.8375 80.264H95.0455L94.1495 85.128C95.4722 83.592 97.0935 82.3547 99.0135 81.416C100.934 80.4773 103.088 80.008 105.478 80.008C108.08 80.008 110.278 80.584 112.07 81.736C113.904 82.8453 115.227 84.4453 116.038 86.536C117.702 84.616 119.643 83.0587 121.862 81.864C124.123 80.6267 126.512 80.008 129.03 80.008Z" fill="#321092"/>
<path d="M205.82 101.832C205.778 102.003 205.757 102.216 205.757 102.472C205.757 103.667 206.525 104.264 208.061 104.264H211.452L209.277 116.36H203.9C195.495 116.36 191.292 112.797 191.292 105.672C191.292 104.392 191.42 103.027 191.676 101.576L193.34 92.104H188.861L190.973 80.264H195.452L196.988 71.56H211.197L209.661 80.264H215.549L213.436 92.104H207.548L205.82 101.832Z" fill="#321092"/>
<path d="M215.967 98.312C216.65 94.5573 218.016 91.2933 220.064 88.52C222.112 85.704 224.65 83.5493 227.68 82.056C230.752 80.5627 234.079 79.816 237.663 79.816C242.357 79.816 246.069 81.1387 248.799 83.784C251.573 86.4293 252.981 90.0987 253.023 94.792H237.984C237.685 92.9147 236.746 91.976 235.167 91.976C234.015 91.976 233.013 92.5093 232.16 93.576C231.349 94.6427 230.751 96.2213 230.367 98.312C230.197 99.5067 230.111 100.296 230.111 100.68C230.111 102.003 230.368 103.005 230.88 103.688C231.392 104.328 232.096 104.648 232.992 104.648C234.613 104.648 235.85 103.709 236.704 101.832H251.743C250.079 106.525 247.392 110.195 243.68 112.84C240.01 115.485 235.829 116.808 231.135 116.808C226.357 116.808 222.559 115.549 219.743 113.032C216.97 110.472 215.583 106.931 215.583 102.408C215.583 101.085 215.711 99.72 215.967 98.312Z" fill="#321092"/>
<path d="M285.367 80.008C288.866 80.008 291.554 81.032 293.432 83.08C295.309 85.0853 296.247 87.8587 296.247 91.4C296.247 92.68 296.119 94.024 295.863 95.432L292.151 116.36H278.008L281.4 97.224C281.485 96.5413 281.527 96.072 281.527 95.816C281.527 94.4933 281.143 93.4693 280.375 92.744C279.65 92.0187 278.626 91.656 277.303 91.656C275.725 91.656 274.402 92.1467 273.336 93.128C272.312 94.1093 271.629 95.4747 271.288 97.224V97.16L267.896 116.36H253.688L262.072 69H276.28L273.336 85.704C274.744 83.9973 276.472 82.632 278.52 81.608C280.568 80.5413 282.85 80.008 285.367 80.008Z" fill="#321092"/>
<path d="M22.224 82.312L21.264 87.944H35.344L33.424 98.632H19.344L18.192 105.032H34.192L32.208 116.36H2L10 71.048H40.208L38.224 82.312H22.224Z" stroke="#321092" stroke-width="2" mask="url(#path-1-outside-1_417_15)"/>
<path d="M70.3945 88.648L68.2825 100.36H38.4585L40.5705 88.648H70.3945Z" stroke="#321092" stroke-width="2" mask="url(#path-1-outside-1_417_15)"/>
<path d="M129.03 80.008C132.955 80.008 135.963 81.032 138.053 83.08C140.187 85.128 141.254 87.9653 141.254 91.592C141.254 92.7867 141.126 94.0667 140.87 95.432L137.158 116.36H123.014L126.406 97.224C126.448 96.968 126.469 96.6053 126.469 96.136C126.469 94.8987 126.086 93.96 125.318 93.32C124.592 92.6373 123.568 92.296 122.245 92.296C120.709 92.296 119.408 92.7227 118.342 93.576C117.318 94.3867 116.656 95.5173 116.357 96.968L112.902 116.36H98.7575L102.15 97.224C102.192 96.968 102.214 96.6053 102.214 96.136C102.214 94.8987 101.83 93.96 101.062 93.32C100.336 92.6373 99.3122 92.296 97.9895 92.296C96.4535 92.296 95.1522 92.7227 94.0855 93.576C93.0615 94.4293 92.4002 95.5813 92.1015 97.032L88.6455 116.36H74.4375L80.8375 80.264H95.0455L94.1495 85.128C95.4722 83.592 97.0935 82.3547 99.0135 81.416C100.934 80.4773 103.088 80.008 105.478 80.008C108.08 80.008 110.278 80.584 112.07 81.736C113.904 82.8453 115.227 84.4453 116.038 86.536C117.702 84.616 119.643 83.0587 121.862 81.864C124.123 80.6267 126.512 80.008 129.03 80.008Z" stroke="#321092" stroke-width="2" mask="url(#path-1-outside-1_417_15)"/>
<path d="M205.82 101.832C205.778 102.003 205.757 102.216 205.757 102.472C205.757 103.667 206.525 104.264 208.061 104.264H211.452L209.277 116.36H203.9C195.495 116.36 191.292 112.797 191.292 105.672C191.292 104.392 191.42 103.027 191.676 101.576L193.34 92.104H188.861L190.973 80.264H195.452L196.988 71.56H211.197L209.661 80.264H215.549L213.436 92.104H207.548L205.82 101.832Z" stroke="#321092" stroke-width="2" mask="url(#path-1-outside-1_417_15)"/>
<path d="M215.967 98.312C216.65 94.5573 218.016 91.2933 220.064 88.52C222.112 85.704 224.65 83.5493 227.68 82.056C230.752 80.5627 234.079 79.816 237.663 79.816C242.357 79.816 246.069 81.1387 248.799 83.784C251.573 86.4293 252.981 90.0987 253.023 94.792H237.984C237.685 92.9147 236.746 91.976 235.167 91.976C234.015 91.976 233.013 92.5093 232.16 93.576C231.349 94.6427 230.751 96.2213 230.367 98.312C230.197 99.5067 230.111 100.296 230.111 100.68C230.111 102.003 230.368 103.005 230.88 103.688C231.392 104.328 232.096 104.648 232.992 104.648C234.613 104.648 235.85 103.709 236.704 101.832H251.743C250.079 106.525 247.392 110.195 243.68 112.84C240.01 115.485 235.829 116.808 231.135 116.808C226.357 116.808 222.559 115.549 219.743 113.032C216.97 110.472 215.583 106.931 215.583 102.408C215.583 101.085 215.711 99.72 215.967 98.312Z" stroke="#321092" stroke-width="2" mask="url(#path-1-outside-1_417_15)"/>
<path d="M285.367 80.008C288.866 80.008 291.554 81.032 293.432 83.08C295.309 85.0853 296.247 87.8587 296.247 91.4C296.247 92.68 296.119 94.024 295.863 95.432L292.151 116.36H278.008L281.4 97.224C281.485 96.5413 281.527 96.072 281.527 95.816C281.527 94.4933 281.143 93.4693 280.375 92.744C279.65 92.0187 278.626 91.656 277.303 91.656C275.725 91.656 274.402 92.1467 273.336 93.128C272.312 94.1093 271.629 95.4747 271.288 97.224V97.16L267.896 116.36H253.688L262.072 69H276.28L273.336 85.704C274.744 83.9973 276.472 82.632 278.52 81.608C280.568 80.5413 282.85 80.008 285.367 80.008Z" stroke="#321092" stroke-width="2" mask="url(#path-1-outside-1_417_15)"/>
<path d="M330.8 70.48C330.56 71.8933 329.987 73.2266 329.08 74.48C328.2 75.7333 326.96 76.76 325.36 77.56C323.76 78.3333 321.813 78.72 319.52 78.72H314.48L312.48 90H307.92L312.84 62.2H322.44C325.24 62.2 327.36 62.8266 328.8 64.08C330.24 65.3066 330.96 66.92 330.96 68.92C330.96 69.2666 330.907 69.7866 330.8 70.48ZM320.16 75.16C321.893 75.16 323.253 74.7466 324.24 73.92C325.253 73.0933 325.88 71.9466 326.12 70.48C326.2 70.08 326.24 69.6933 326.24 69.32C326.24 68.2 325.867 67.3333 325.12 66.72C324.4 66.08 323.293 65.76 321.8 65.76H316.76L315.12 75.16H320.16Z" fill="black"/>
<path d="M339.469 71.84C340.376 70.5066 341.442 69.4666 342.669 68.72C343.922 67.9733 345.309 67.6 346.829 67.6L345.989 72.32H344.829C343.069 72.32 341.656 72.76 340.589 73.64C339.522 74.52 338.776 76.04 338.349 78.2L336.269 90H331.709L335.589 67.96H340.149L339.469 71.84Z" fill="black"/>
<path d="M356.701 90.36C354.834 90.36 353.194 89.9733 351.781 89.2C350.367 88.4266 349.261 87.3333 348.461 85.92C347.687 84.5066 347.301 82.8933 347.301 81.08C347.301 78.6 347.874 76.3333 349.021 74.28C350.194 72.2266 351.794 70.6 353.821 69.4C355.874 68.2 358.154 67.6 360.661 67.6C362.527 67.6 364.181 68 365.621 68.8C367.061 69.5733 368.181 70.6666 368.981 72.08C369.807 73.4666 370.221 75.08 370.221 76.92C370.221 79.4 369.621 81.6666 368.421 83.72C367.221 85.7733 365.594 87.4 363.541 88.6C361.487 89.7733 359.207 90.36 356.701 90.36ZM357.261 86.52C358.781 86.52 360.167 86.0933 361.421 85.24C362.701 84.36 363.701 83.2133 364.421 81.8C365.141 80.36 365.501 78.8266 365.501 77.2C365.501 75.36 364.981 73.9466 363.941 72.96C362.901 71.9466 361.594 71.44 360.021 71.44C358.474 71.44 357.087 71.88 355.861 72.76C354.661 73.6133 353.714 74.7733 353.021 76.24C352.354 77.68 352.021 79.2266 352.021 80.88C352.021 82.6666 352.501 84.0533 353.461 85.04C354.447 86.0266 355.714 86.52 357.261 86.52Z" fill="black"/>
<path fill-rule="evenodd" clip-rule="evenodd" d="M172.695 61.2855C157.212 70.6112 153.06 79.9563 152.061 86.5439L147.117 85.7936C148.374 77.5098 153.568 66.9694 170.116 57.0024C186.554 47.1014 214.301 37.6896 260.947 31.4199L261.613 36.3754C215.258 42.6058 188.288 51.8938 172.695 61.2855Z" fill="#321092"/>
<path fill-rule="evenodd" clip-rule="evenodd" d="M187.093 74.8398C179.601 79.3071 174.647 84.0364 172.832 88.7342L168.168 86.9322C170.603 80.63 176.774 75.1718 184.532 70.5453C192.378 65.8665 202.26 61.7974 212.74 58.4516C233.678 51.7665 257.438 47.8332 273 47.8332L273 52.8332C258.062 52.8332 234.822 56.6498 214.26 63.2147C203.99 66.4939 194.497 70.4249 187.093 74.8398Z" fill="#321092"/>
<path fill-rule="evenodd" clip-rule="evenodd" d="M177.716 69.8233C172.725 73.1283 170.095 75.9161 169.28 77.7288L164.72 75.6769C166.154 72.4896 169.837 69.0438 174.956 65.6545C180.192 62.187 187.311 58.5339 196.149 55.0658C213.835 48.126 238.576 41.8595 269.296 39.3415L269.704 44.3248C239.424 46.8068 215.165 52.9752 197.976 59.7203C189.376 63.0946 182.589 66.5965 177.716 69.8233Z" fill="#321092"/>
<path d="M164 82.6053L167.033 92.1527L167.476 93.5471H168.939H178.878L170.799 99.5504L169.654 100.401L170.086 101.761L173.148 111.4L165.193 105.489L164 104.603L162.807 105.489L154.852 111.4L157.914 101.761L158.346 100.401L157.201 99.5504L149.122 93.5471H159.061H160.524L160.967 92.1527L164 82.6053Z" stroke="#321092" stroke-width="4"/>
</svg>
